<mxfile host="app.diagrams.net" modified="2024-04-07T19:39:13.817Z" agent="Mozilla/5.0 (Windows NT 10.0; Win64; x64) AppleWebKit/537.36 (KHTML, like Gecko) Chrome/122.0.0.0 Safari/537.36" etag="Jq7PipLL8SLgRPtBezmF" version="23.0.2" type="device">
  <diagram name="Page-1" id="ykhGiU7fGfvC2RLxEQsv">
    <mxGraphModel dx="2035" dy="647" grid="1" gridSize="10" guides="1" tooltips="1" connect="1" arrows="1" fold="1" page="1" pageScale="1" pageWidth="850" pageHeight="1100" math="0" shadow="0">
      <root>
        <mxCell id="0" />
        <mxCell id="1" parent="0" />
        <mxCell id="tjNHeiSsNj7p865hVfeZ-4" style="edgeStyle=orthogonalEdgeStyle;rounded=0;orthogonalLoop=1;jettySize=auto;html=1;" edge="1" parent="1" source="QNZhCxuGhtchbmdTFc9o-2" target="QNZhCxuGhtchbmdTFc9o-6">
          <mxGeometry relative="1" as="geometry" />
        </mxCell>
        <mxCell id="tjNHeiSsNj7p865hVfeZ-3" style="edgeStyle=orthogonalEdgeStyle;rounded=0;orthogonalLoop=1;jettySize=auto;html=1;exitX=1;exitY=0.5;exitDx=0;exitDy=0;entryX=0;entryY=0.5;entryDx=0;entryDy=0;" edge="1" parent="1" source="QNZhCxuGhtchbmdTFc9o-1" target="QNZhCxuGhtchbmdTFc9o-2">
          <mxGeometry relative="1" as="geometry" />
        </mxCell>
        <mxCell id="QNZhCxuGhtchbmdTFc9o-1" value="LLM" style="rounded=0;whiteSpace=wrap;html=1;" parent="1" vertex="1">
          <mxGeometry x="-80" y="215" width="80" height="30" as="geometry" />
        </mxCell>
        <mxCell id="QNZhCxuGhtchbmdTFc9o-2" value="" style="rounded=0;whiteSpace=wrap;html=1;" parent="1" vertex="1">
          <mxGeometry x="40" y="215" width="90" height="30" as="geometry" />
        </mxCell>
        <mxCell id="QNZhCxuGhtchbmdTFc9o-3" value="" style="rounded=0;whiteSpace=wrap;html=1;" parent="1" vertex="1">
          <mxGeometry x="50" y="225" width="90" height="30" as="geometry" />
        </mxCell>
        <mxCell id="QNZhCxuGhtchbmdTFc9o-4" value="" style="rounded=0;whiteSpace=wrap;html=1;" parent="1" vertex="1">
          <mxGeometry x="60" y="235" width="90" height="30" as="geometry" />
        </mxCell>
        <mxCell id="QNZhCxuGhtchbmdTFc9o-5" value="stable-diffusion" style="rounded=0;whiteSpace=wrap;html=1;" parent="1" vertex="1">
          <mxGeometry x="70" y="245" width="90" height="30" as="geometry" />
        </mxCell>
        <mxCell id="tjNHeiSsNj7p865hVfeZ-5" style="edgeStyle=orthogonalEdgeStyle;rounded=0;orthogonalLoop=1;jettySize=auto;html=1;exitX=1;exitY=0.5;exitDx=0;exitDy=0;" edge="1" parent="1" source="QNZhCxuGhtchbmdTFc9o-6" target="QNZhCxuGhtchbmdTFc9o-8">
          <mxGeometry relative="1" as="geometry" />
        </mxCell>
        <mxCell id="QNZhCxuGhtchbmdTFc9o-6" value="MobileNetV3" style="rounded=0;whiteSpace=wrap;html=1;" parent="1" vertex="1">
          <mxGeometry x="200" y="215" width="80" height="30" as="geometry" />
        </mxCell>
        <mxCell id="tjNHeiSsNj7p865hVfeZ-2" style="edgeStyle=orthogonalEdgeStyle;rounded=0;orthogonalLoop=1;jettySize=auto;html=1;exitX=1;exitY=0.5;exitDx=0;exitDy=0;" edge="1" parent="1" source="QNZhCxuGhtchbmdTFc9o-7" target="QNZhCxuGhtchbmdTFc9o-1">
          <mxGeometry relative="1" as="geometry" />
        </mxCell>
        <mxCell id="QNZhCxuGhtchbmdTFc9o-7" value="Seznam kategorij&lt;div&gt;(npr. tekočina, hrana, škatla)&lt;/div&gt;" style="shape=parallelogram;perimeter=parallelogramPerimeter;whiteSpace=wrap;html=1;fixedSize=1;" parent="1" vertex="1">
          <mxGeometry x="-320" y="210" width="190" height="40" as="geometry" />
        </mxCell>
        <mxCell id="QNZhCxuGhtchbmdTFc9o-8" value="Model" style="shape=parallelogram;perimeter=parallelogramPerimeter;whiteSpace=wrap;html=1;fixedSize=1;" parent="1" vertex="1">
          <mxGeometry x="320" y="210" width="80" height="40" as="geometry" />
        </mxCell>
        <mxCell id="QNZhCxuGhtchbmdTFc9o-9" value="&lt;font style=&quot;font-size: 8px;&quot;&gt;Vhod&lt;/font&gt;" style="text;html=1;align=center;verticalAlign=middle;whiteSpace=wrap;rounded=0;rotation=270;" parent="1" vertex="1">
          <mxGeometry x="-350" y="215" width="30" height="30" as="geometry" />
        </mxCell>
        <mxCell id="tjNHeiSsNj7p865hVfeZ-6" value="Prompti za generacijo slik" style="text;html=1;strokeColor=none;fillColor=none;align=center;verticalAlign=middle;whiteSpace=wrap;rounded=0;fontSize=8;direction=west;rotation=270;" vertex="1" parent="1">
          <mxGeometry x="-10" y="185" width="60" height="30" as="geometry" />
        </mxCell>
        <mxCell id="tjNHeiSsNj7p865hVfeZ-7" value="Podatkovna zbirka (sliki)" style="text;html=1;strokeColor=none;fillColor=none;align=center;verticalAlign=middle;whiteSpace=wrap;rounded=0;fontSize=8;direction=west;rotation=270;" vertex="1" parent="1">
          <mxGeometry x="140" y="185" width="60" height="30" as="geometry" />
        </mxCell>
        <mxCell id="tjNHeiSsNj7p865hVfeZ-8" value="Naučen model in uteži" style="text;html=1;strokeColor=none;fillColor=none;align=center;verticalAlign=middle;whiteSpace=wrap;rounded=0;fontSize=8;direction=west;rotation=270;" vertex="1" parent="1">
          <mxGeometry x="270" y="185" width="60" height="30" as="geometry" />
        </mxCell>
        <mxCell id="tjNHeiSsNj7p865hVfeZ-9" value="&lt;font style=&quot;font-size: 8px;&quot;&gt;Izhod&lt;/font&gt;" style="text;html=1;align=center;verticalAlign=middle;whiteSpace=wrap;rounded=0;rotation=270;" vertex="1" parent="1">
          <mxGeometry x="400" y="215" width="30" height="30" as="geometry" />
        </mxCell>
      </root>
    </mxGraphModel>
  </diagram>
</mxfile>
